<svg xmlns="http://www.w3.org/2000/svg" viewBox="0 0 16 16" fill="#f6f6fa" id="Sign-Out--Streamline-Phosphor" height="16" width="16">
  <desc>
    Sign Out Streamline Icon: https://streamlinehq.com
  </desc>
  <path d="M6.69311875 15.18643125c0 0.3608125 -0.2925 0.6533125 -0.6533125 0.6533125H0.8133125c-0.3608125 0 -0.6533125 -0.2925 -0.6533125 -0.6533125V0.81356875c0 -0.3608125 0.2925 -0.6533125 0.6533125 -0.6533125h5.22649375c0.50291875 0 0.81724375 0.544425 0.5657875 0.97996875 -0.11670625 0.2021375 -0.33238125 0.32665625 -0.5657875 0.32665625H1.466625v13.0662375h4.57318125c0.3608125 0 0.6533125 0.2925 0.6533125 0.6533125Zm8.955275 -7.64865 -3.2665625 -3.26655625c-0.3558125 -0.35581875 -0.96338125 -0.19301875 -1.09361875 0.29303125 -0.06044375 0.22558125 0.00405 0.46626875 0.16918125 0.6314l2.15185 2.15103125H6.03980625c-0.50291875 0 -0.81724375 0.544425 -0.56578125 0.97996875 0.1167 0.2021375 0.332375 0.32665625 0.56578125 0.32665625h7.5694375l-2.15185 2.15103125c-0.3558125 0.3558125 -0.19301875 0.96338125 0.2930375 1.09361875 0.225575 0.06044375 0.46626875 -0.00405 0.6314 -0.1691875l3.2665625 -3.26655625c0.255475 -0.25519375 0.255475 -0.66924375 0 -0.9244375Z" stroke-width="0.0625"></path>
</svg>