<svg xmlns="http://www.w3.org/2000/svg" viewBox="0 0 16 16" fill="#fafafc" id="Chef-Hat--Streamline-Phosphor" height="16" width="16">
  <desc>
    Chef Hat Streamline Icon: https://streamlinehq.com
  </desc>
  <path d="M15.84 7.1593c-0.0023125 -2.164075 -1.75606875 -3.917825 -3.92014375 -3.9201375 -0.1239 0 -0.24780625 0.007 -0.3703125 0.0182 -1.280325 -2.7326625 -5.038725 -3.054575 -6.7651125 -0.57944375 -0.12781875 0.18325625 -0.23974375 0.3771125 -0.3345375 0.57944375 -0.12250625 -0.0112 -0.2464125 -0.0182 -0.37031875 -0.0182 -3.017725 0.0007375 -4.9030125 3.26798125 -3.39350625 5.8810375 0.39766875 0.6884 0.99524375 1.23961875 1.71345 1.580525v3.17881875c0 0.6186 0.5014375 1.12006875 1.1200375 1.1200375h8.960325c0.61855625 -0.000025 1.1200375 -0.501475 1.1200375 -1.1200375v-3.17881875c1.36685625 -0.65005 2.23836875 -2.02786875 2.24008125 -3.541425Zm-3.36011875 6.72024375H3.51955625v-2.84070625c0.1854375 0.027025 0.372625 0.04059375 0.56001875 0.04060625h7.84028125c0.1874 -0.0000125 0.3745875 -0.01358125 0.560025 -0.04060625Zm-0.560025 -3.92014375h-0.96253125l0.3857125 -1.54425625c0.097375 -0.4199625 -0.2963875 -0.78785 -0.708775 -0.6622 -0.18484375 0.056325 -0.32759375 0.20395625 -0.3776625 0.39059375l-0.45431875 1.8158625h-1.24254375v-1.68005625c0 -0.43110625 -0.46668125 -0.70054375 -0.84003125 -0.48499375 -0.17326875 0.1000375 -0.28000625 0.2849125 -0.28000625 0.48499375v1.68005625H6.19715625l-0.45431875 -1.8158625c-0.097375 -0.4199625 -0.61285625 -0.57703125 -0.92786875 -0.28271875 -0.15121875 0.14128125 -0.21219375 0.35444375 -0.15856875 0.554325l0.3857125 1.54425625H4.079575c-2.1555125 -0.00101875 -3.5016125 -2.335075 -2.42296875 -4.2013 0.500125 -0.86529375 1.4235375 -1.398425 2.42296875 -1.3989h0.04060625c-0.02709375 0.18544375 -0.0406625 0.3726125 -0.04060625 0.56001875 0 0.43110625 0.4666875 0.70054375 0.84003125 0.48499375 0.173275 -0.1000375 0.2800125 -0.28491875 0.2800125 -0.48499375 0.00101875 -2.15551875 2.33506875 -3.5016125 4.20129375 -2.42296875 0.8653 0.500125 1.39843125 1.4235375 1.39890625 2.42296875 0 0.43110625 0.46668125 0.70054375 0.84003125 0.48499375 0.17326875 -0.1000375 0.28000625 -0.28491875 0.28000625 -0.48499375 0.0000625 -0.18740625 -0.01350625 -0.374575 -0.0406 -0.56001875h0.0406c2.15551875 0.00101875 3.50161875 2.335075 2.422975 4.2013 -0.500125 0.86529375 -1.4235375 1.39843125 -2.422975 1.3989Z" stroke-width="0.0625"></path>
</svg>