<svg xmlns="http://www.w3.org/2000/svg" viewBox="0 0 16 16" fill="#fafafa" id="Shopping-Cart-Simple--Streamline-Phosphor" height="16" width="16">
  <desc>
    Shopping Cart Simple Streamline Icon: https://streamlinehq.com
  </desc>
  <path d="M6.64823125 13.94754375c0 0.83244375 -0.90114375 1.35271875 -1.62205625 0.93649375 -0.72091875 -0.41621875 -0.72091875 -1.45676875 0 -1.8729875 0.1643875 -0.0949125 0.3508625 -0.144875 0.54068125 -0.144875 0.597225 0 1.081375 0.48414375 1.081375 1.08136875Zm5.94754375 -1.08136875c-0.8324375 0 -1.3527125 0.90114375 -0.93649375 1.62205625 0.41621875 0.7209125 1.45676875 0.7209125 1.8729875 0 0.0949125 -0.1643875 0.14488125 -0.35086875 0.14488125 -0.5406875 0 -0.597225 -0.48415 -1.08136875 -1.081375 -1.08136875Zm3.22451875 -8.50634375 -1.7329 6.2368125c-0.1957625 0.700025 -0.83233125 1.18510625 -1.55920625 1.18815625H5.84801875c-0.7291375 -0.00033125 -1.3689125 -0.4859625 -1.5652875 -1.18815625L1.911825 2.05245625H0.7006875c-0.41621875 0 -0.6763625 -0.450575 -0.46825 -0.81103125 0.0965875 -0.16729375 0.27506875 -0.27035 0.46825 -0.27034375h1.62205625c0.24295 -0.00004375 0.4561 0.16195625 0.5210875 0.39605625l0.6407125 2.307375h11.8146625c0.357575 -0.00006875 0.6167375 0.340775 0.5210875 0.68531875Zm-1.23276875 0.39605625H3.7853l1.54163125 5.5514875c0.0649875 0.2341 0.2781375 0.3961 0.5210875 0.39605625H12.5281875c0.24295 0.00004375 0.4561 -0.16195625 0.5210875 -0.39605625Z" stroke-width="0.0625"></path>
</svg>