<svg xmlns="http://www.w3.org/2000/svg" viewBox="0 0 16 16" fill="#f9f9fc" id="Call-Bell--Streamline-Phosphor" height="16" width="16">
  <desc>
    Call Bell Streamline Icon: https://streamlinehq.com
  </desc>
  <path d="M0.72 12.48h14.56c0.4310875 0 0.70051875 -0.46666875 0.484975 -0.84 -0.10003125 -0.17325625 -0.2849125 -0.27999375 -0.484975 -0.28h-0.56v-1.12c-0.00423125 -3.49251875 -2.6799625 -6.4011625 -6.16 -6.6962V2.4h1.12c0.4310875 0 0.70051875 -0.46666875 0.484975 -0.84 -0.1000375 -0.1732625 -0.28490625 -0.28 -0.484975 -0.28h-3.36c-0.4310875 0 -0.70051875 0.46666875 -0.484975 0.84 0.1000375 0.1732625 0.28490625 0.28 0.484975 0.28h1.12v1.1438C3.9599625 3.8388375 1.28423125 6.74748125 1.28 10.24v1.12h-0.56c-0.4310875 0 -0.70051875 0.46666875 -0.484975 0.84 0.1000375 0.1732625 0.28490625 0.28 0.484975 0.28Zm1.68 -2.24c0 -4.31088125 4.66666875 -7.00518125 8.4 -4.84974375 1.73264375 1.00034375 2.8 2.84905625 2.8 4.84974375v1.12H2.4Zm13.44 3.92c0 0.30928125 -0.25071875 0.56 -0.56 0.56H0.72c-0.4310875 0 -0.70051875 -0.46666875 -0.484975 -0.84 0.1000375 -0.1732625 0.28490625 -0.28 0.484975 -0.28h14.56c0.30928125 0 0.56 0.25071875 0.56 0.56Z" stroke-width="0.0625"></path>
</svg>