<svg xmlns="http://www.w3.org/2000/svg" viewBox="0 0 16 16" fill="#fafafc" id="List-Plus--Streamline-Phosphor" height="16" width="16">
  <desc>
    List Plus Streamline Icon: https://streamlinehq.com
  </desc>
  <path d="M0.16 2.27076875c0 -0.33306875 0.27000625 -0.603075 0.603075 -0.603075h13.26769375c0.46425 0 0.75440625 0.5025625 0.52228125 0.9046125 -0.107725 0.1865875 -0.30683125 0.30153125 -0.52228125 0.3015375H0.763075c-0.33308125 0.00001875 -0.603075 -0.26999375 -0.603075 -0.603075Zm0.603075 5.42769375h13.26769375c0.46425 -0.00001875 0.75440625 -0.5026 0.52226875 -0.9046375 -0.1077375 -0.18658125 -0.30681875 -0.30151875 -0.52226875 -0.30151875H0.763075c-0.46425 0 -0.7544 0.50256875 -0.52228125 0.90461875 0.107725 0.18658125 0.30683125 0.301525 0.52228125 0.3015375Zm7.84 3.6184625h-7.84c-0.46425 0.00001875 -0.75440625 0.50259375 -0.5222625 0.9046375 0.10773125 0.18658125 0.3068125 0.3015125 0.5222625 0.3015125h7.84c0.46425 0 0.75440625 -0.5025625 0.52228125 -0.9046125 -0.107725 -0.1865875 -0.30683125 -0.30153125 -0.52228125 -0.3015375Zm6.63385 0h-1.20615625v-1.20615625c0 -0.46425 -0.5025625 -0.75440625 -0.9046125 -0.52228125 -0.18659375 0.10773125 -0.30154375 0.306825 -0.30154375 0.52228125v1.20615625h-1.20615c-0.46425 0.00001875 -0.7544125 0.50259375 -0.52226875 0.9046375 0.10773125 0.18658125 0.30681875 0.3015125 0.52226875 0.3015125h1.20615v1.20615625c0 0.46425 0.50256875 0.75440625 0.90461875 0.52228125 0.18659375 -0.10773125 0.3015375 -0.306825 0.3015375 -0.52228125v-1.20615625h1.20615625c0.46424375 0 0.7544 -0.5025625 0.522275 -0.9046125 -0.10771875 -0.1865875 -0.306825 -0.30153125 -0.522275 -0.3015375Z" stroke-width="0.0625"></path>
</svg>