<svg xmlns="http://www.w3.org/2000/svg" viewBox="0 0 16 16" fill="#f6f6fa" id="Clock-Counter-Clockwise--Streamline-Phosphor" height="16" width="16">
  <desc>
    Clock Counter Clockwise Streamline Icon: https://streamlinehq.com
  </desc>
  <path d="M8.943175 4.2357375v3.40896875l2.832575 1.6993875c0.41413125 0.24871875 0.40371875 0.852475 -0.01874375 1.0867625 -0.19606875 0.10873125 -0.43524375 0.10460625 -0.62744375 -0.010825l-3.13685 -1.88210625c-0.18885 -0.1134625 -0.30434375 -0.3176625 -0.304275 -0.53796875V4.2357375c0.00048125 -0.48295 0.52359375 -0.784275 0.9416 -0.54238125 0.19360625 0.1120375 0.31291875 0.3186875 0.3131375 0.54238125ZM8.31580625 0.47151875c-1.99901875 -0.00498125 -3.9169625 0.789925 -5.32636875 2.20755625 -0.570125 0.57718125 -1.076725 1.1324 -1.5747 1.7135V2.98099375c-0.00048125 -0.48295 -0.5235875 -0.78426875 -0.94159375 -0.542375 -0.1936125 0.1120375 -0.31291875 0.3186875 -0.31314375 0.542375v3.13685c0 0.3465 0.280875 0.6273875 0.62736875 0.62736875h3.13685c0.48295 -0.00048125 0.784275 -0.5235875 0.54238125 -0.94159375 -0.1120375 -0.1936125 -0.3186875 -0.31291875 -0.54238125 -0.31314375h-1.8036875c0.5607125 -0.66030625 1.11906875 -1.2821875 1.75585 -1.92680625 3.414975 -3.4149625 9.24614375 -1.85249375 10.49609375 2.81244375 1.24995625 4.6649375 -3.0187625 8.9336375 -7.68369375 7.6836625C5.68444375 13.7906625 4.76274375 13.27615 4.0065625 12.5625c-0.35135 -0.332025 -0.93036875 -0.1592 -1.04224375 0.3110875 -0.05191875 0.2182625 0.01655 0.44764375 0.17960625 0.6017375 4.21494375 3.97754375 11.1551 1.90069375 12.49228125 -3.738325C16.75711875 5.01000625 13.17388125 0.47468125 8.31580625 0.47151875Z" stroke-width="0.0625"></path>
</svg>