<svg xmlns="http://www.w3.org/2000/svg" viewBox="0 0 16 16" fill="#fdfdff" id="Chart-Line-Up--Streamline-Phosphor" height="16" width="16">
  <desc>
    Chart Line Up Streamline Icon: https://streamlinehq.com
  </desc>
  <path d="M15.84 14.03076875c0 0.3330625 -0.27001875 0.6030625 -0.603075 0.603075H0.763075c-0.33308125 0.00001875 -0.603075 -0.26999375 -0.603075 -0.603075V1.96923125c0 -0.46425 0.5025625 -0.75440625 0.9046125 -0.52228125 0.18659375 0.10773125 0.30154375 0.30681875 0.30154375 0.52228125v8.19355l3.79485625 -3.7956125c0.235575 -0.23583125 0.6177875 -0.23583125 0.85335625 0L8 8.35355625l3.9720125 -3.97201875h-1.55970625c-0.46425 0 -0.7544 -0.5025625 -0.52228125 -0.9046125 0.10773125 -0.18659375 0.306825 -0.3015375 0.52228125 -0.3015375h3.0153875c0.33305625 0.0000125 0.603075 0.2700125 0.603075 0.603075v3.01538125c0 0.46425 -0.5025625 0.75440625 -0.9046125 0.52228125 -0.18659375 -0.10773125 -0.30154375 -0.30681875 -0.30154375 -0.52228125V5.2341375l-4.3979375 4.39869375c-0.23556875 0.23583125 -0.61778125 0.23583125 -0.85335 0l-1.98563125 -1.9863875 -4.2215375 4.22154375v1.55970625h13.87076875c0.33305625 0.0000125 0.603075 0.27001875 0.603075 0.603075Z" stroke-width="0.0625"></path>
</svg>