<svg xmlns="http://www.w3.org/2000/svg" viewBox="0 0 16 16" fill="#f6f6fa" id="Fork-Knife--Streamline-Phosphor" height="16" width="16">
  <desc>
    Fork Knife Streamline Icon: https://streamlinehq.com
  </desc>
  <path d="M3.92585 4.55773125V0.79696875c0.00048125 -0.4825 0.52310625 -0.78355 0.94073125 -0.541875 0.19343125 0.11193125 0.31263125 0.31839375 0.31285625 0.541875v3.7607625c-0.0004875 0.4825 -0.5231125 0.78355 -0.94073125 0.541875 -0.19343125 -0.11193125 -0.31263125 -0.31839375 -0.31285625 -0.541875Zm11.28226875 -3.7607625v14.4162375c-0.00048125 0.48250625 -0.52310625 0.78355 -0.94073125 0.54188125 -0.19343125 -0.1119375 -0.31263125 -0.31839375 -0.31285 -0.54188125v-3.76075625h-3.7607625c-0.346175 0.0000125 -0.6267875 -0.2806125 -0.6267875 -0.62679375 0.0291 -1.50141875 0.21874375 -2.99541875 0.565675 -4.4565 0.76625625 -3.17235 2.21885 -5.29875 4.2018625 -6.14805 0.413475 -0.1771125 0.8733875 0.12605625 0.87359375 0.5758625Zm-1.25358125 1.08905625c-2.52049375 1.9250375 -3.01409375 6.61423125 -3.1104625 8.3128375h3.1104625ZM7.6779875 0.69433125C7.606825 0.21710625 7.04573125 -0.004125 6.66801875 0.296125c-0.18130625 0.144125 -0.2683625 0.3764875 -0.22638125 0.60426875l0.618175 3.70669375c0 1.930025 -2.08930625 3.1362875 -3.76075625 2.171275 -0.77571875 -0.4478625 -1.2535875 -1.27555 -1.2535875 -2.171275l0.61739375 -3.70669375C2.75031875 0.42588125 2.29130625 0.03463125 1.8366375 0.19615c-0.21825625 0.07753125 -0.3759625 0.2691 -0.410125 0.49818125L0.79971875 4.45509375c-0.0053625 0.03394375 -0.00798125 0.06826875 -0.00783125 0.1026375 0.00258125 1.83405 1.3259375 3.399575 3.1339625 3.707475v6.948c0.00048125 0.48250625 0.52310625 0.78355 0.94073125 0.54188125 0.19343125 -0.1119375 0.31263125 -0.31839375 0.31285625 -0.54188125v-6.948c1.808025 -0.3079 3.131375 -1.873425 3.1339625 -3.707475 -0.0001125 -0.03439375 -0.00299375 -0.0687125 -0.00861875 -0.1026375Z" stroke-width="0.0625"></path>
</svg>