<svg xmlns="http://www.w3.org/2000/svg" viewBox="0 0 16 16" fill="#fafafc" id="User-Circle--Streamline-Phosphor" height="16" width="16">
  <desc>
    User Circle Streamline Icon: https://streamlinehq.com
  </desc>
  <path d="M8 0.16c-6.0352375 0 -9.80725625 6.53333125 -6.7896375 11.76 3.0176125 5.22666875 10.56165625 5.22666875 13.579275 0C15.47774375 10.72816875 15.84 9.37620625 15.84 8 15.83543125 3.67198125 12.32801875 0.164575 8 0.16ZM3.9352625 13.23923125c1.8974125 -2.96748125 6.2320625 -2.96748125 8.129475 0 -2.39085 1.85941875 -5.738625 1.85941875 -8.129475 0Zm1.65243125 -5.84230625c0 -1.857 2.01025625 -3.01761875 3.6184625 -2.08911875 1.6082 0.92849375 1.6082 3.2497375 0 4.1782375 -0.3666875 0.21170625 -0.78274375 0.32316875 -1.20615625 0.3231875 -1.332325 0.00005625 -2.41230625 -1.0799875 -2.41230625 -2.41230625Zm7.3696 5.0062875c-0.67260625 -0.9746625 -1.61836875 -1.72870625 -2.71836875 -2.16730625 2.18825 -1.723525 1.69013125 -5.169575 -0.89660625 -6.20289375 -2.5867375 -1.0333125 -5.32205 1.1210875 -4.9235625 3.87793125 0.13275625 0.91844375 0.61330625 1.750775 1.34231875 2.3249625 -1.1 0.4386 -2.0457625 1.19264375 -2.71836875 2.16730625 -3.3935125 -3.816125 -1.3833875 -9.8747875 3.61823125 -10.9056 5.001625 -1.03080625 9.24351875 3.73935 7.6354125 8.58628125 -0.28403125 0.85610625 -0.73966875 1.6452875 -1.33905625 2.31931875Z" stroke-width="0.0625"></path>
</svg>