<svg xmlns="http://www.w3.org/2000/svg" viewBox="0 0 16 16" fill="#f8f8fa" id="File-Text--Streamline-Phosphor" height="16" width="16">
  <desc>
    File Text Streamline Icon: https://streamlinehq.com
  </desc>
  <path d="M14.45744375 4.5579375 10.23590625 0.3364c-0.11319375 -0.11306875 -0.26668125 -0.176525 -0.426675 -0.1764H2.57230625c-0.6661625 -0.00003125 -1.20615 0.53999375 -1.20615 1.20615625v13.2676875c0 0.6661625 0.5399875 1.2061875 1.20615 1.20615625h10.8553875c0.6661625 0.00003125 1.20615 -0.53999375 1.20615 -1.20615625V4.98461875c0.000125 -0.16 -0.06333125 -0.31348125 -0.1764 -0.42668125Zm-4.0451375 -2.33918125 2.1627875 2.16278125h-2.1627875Zm3.0153875 12.4150875H2.57230625V1.36615625h6.63385v3.61845625c0 0.33308125 0.26999375 0.60309375 0.603075 0.60308125h3.6184625v9.04615Zm-2.41230625 -6.03076875c0 0.3330625 -0.27001875 0.6030625 -0.60308125 0.60308125H5.58769375c-0.46425 0 -0.75440625 -0.50256875 -0.52228125 -0.90461875 0.107725 -0.18658125 0.30683125 -0.301525 0.52228125 -0.3015375h4.8246125c0.3330625 0.0000125 0.60308125 0.27001875 0.60308125 0.603075Zm0 2.4123125c0 0.33305625 -0.27001875 0.60305625 -0.60308125 0.603075H5.58769375c-0.46425 -0.000025 -0.7544125 -0.5026 -0.52226875 -0.9046375 0.10773125 -0.18658125 0.30681875 -0.30151875 0.52226875 -0.30151875h4.8246125c0.3330625 0.00001875 0.60308125 0.27001875 0.60308125 0.60308125Z" stroke-width="0.0625"></path>
</svg>