<svg xmlns="http://www.w3.org/2000/svg" viewBox="0 0 16 16" fill="#f3f3f6" id="Note-Pencil--Streamline-Phosphor" height="16" width="16">
  <desc>
    Note Pencil Streamline Icon: https://streamlinehq.com
  </desc>
  <path d="M15.65605625 2.8526625 13.1473375 0.34394375c-0.2449875 -0.24525625 -0.642475 -0.24525625 -0.8874625 0L4.7337125 7.87010625c-0.1175875 0.11771875 -0.18358125 0.27734375 -0.18345 0.44373125v2.50871875c0 0.34639375 0.2807875 0.6272 0.62718125 0.62718125h2.50871875c0.1663875 0.00013125 0.3260125 -0.0658625 0.44373125 -0.18345L15.65605625 3.740125c0.24525625 -0.2449875 0.24525625 -0.642475 0 -0.8874625ZM7.42666875 10.195375H5.804625v-1.62204375l5.0174375 -5.0174375 1.62205 1.62204375Zm5.90411875 -5.9041125 -1.62204375 -1.62205 0.9948625 -0.9948625 1.62204375 1.62204375Zm1.8815375 4.022575v6.2718c0 0.69276875 -0.56159375 1.2543625 -1.25435625 1.2543625H1.4143625c-0.69276875 0 -1.2543625 -0.56159375 -1.2543625 -1.2543625V2.0420375c0 -0.6927875 0.561575 -1.25439375 1.2543625 -1.2543625h6.2718c0.48280625 0.00001875 0.7845625 0.52268125 0.54314375 0.94079375 -0.11204375 0.1940375 -0.31908125 0.31356875 -0.54314375 0.31356875H1.4143625v12.5436h12.54360625V8.3138375c0 -0.48280625 0.52265 -0.78455625 0.94076875 -0.54315625 0.19405 0.1120375 0.3135875 0.3190875 0.3135875 0.54315625Z" stroke-width="0.0625"></path>
</svg>